<?xml version="1.0" encoding="UTF-8"?>
<svg width="377px" height="381px" viewBox="0 0 377 381" version="1.1" xmlns="http://www.w3.org/2000/svg" xmlns:xlink="http://www.w3.org/1999/xlink">
    <!-- Generator: Sketch 55.2 (78181) - https://sketchapp.com -->
    <title>graph-5x</title>
    <desc>Created with Sketch.</desc>
    <g id="Final-Comps" stroke="none" stroke-width="1" fill="none" fill-rule="evenodd">
        <g id="graph-5x">
            <g id="Group-71">
                <g id="Group-20" transform="translate(0.110992, 0.202210)">
                    <polygon id="Fill-1" fill="#FAFAFA" points="21.541693 354.637194 376.427891 354.637194 376.427891 63.9019062 21.541693 63.9019062"></polygon>
                    <path d="M13.0737446,126.160668 L56.7808321,126.160668 L56.7808321,97.3129249 L13.0737446,97.3129249 L13.0737446,126.160668 Z M57.7408528,126.160668 L101.423952,126.160668 L101.423952,97.3129249 L57.7408528,97.3129249 L57.7408528,126.160668 Z M102.383013,126.160668 L146.066112,126.160668 L146.066112,97.3129249 L102.383013,97.3129249 L102.383013,126.160668 Z M147.026133,126.160668 L190.709232,126.160668 L190.709232,97.3129249 L147.026133,97.3129249 L147.026133,126.160668 Z M191.668293,126.160668 L235.351392,126.160668 L235.351392,97.3129249 L191.668293,97.3129249 L191.668293,126.160668 Z M236.310933,126.160668 L280.0185,126.160668 L280.0185,97.3129249 L236.310933,97.3129249 L236.310933,126.160668 Z M280.978041,126.160668 L324.66114,126.160668 L324.66114,97.3129249 L280.978041,97.3129249 L280.978041,126.160668 Z M13.0737446,155.969202 L56.7808321,155.969202 L56.7808321,127.121459 L13.0737446,127.121459 L13.0737446,155.969202 Z M57.7408528,155.969202 L101.423952,155.969202 L101.423952,127.121459 L57.7408528,127.121459 L57.7408528,155.969202 Z M102.383013,155.969202 L146.066112,155.969202 L146.066112,127.121459 L102.383013,127.121459 L102.383013,155.969202 Z M147.026133,155.969202 L190.709232,155.969202 L190.709232,127.121459 L147.026133,127.121459 L147.026133,155.969202 Z M191.668293,155.969202 L235.351392,155.969202 L235.351392,127.121459 L191.668293,127.121459 L191.668293,155.969202 Z M236.310933,155.969202 L280.0185,155.969202 L280.0185,127.121459 L236.310933,127.121459 L236.310933,155.969202 Z M280.978041,155.969202 L324.66114,155.969202 L324.66114,127.121459 L280.978041,127.121459 L280.978041,155.969202 Z M13.0737446,185.777735 L56.7808321,185.777735 L56.7808321,156.929992 L13.0737446,156.929992 L13.0737446,185.777735 Z M57.7408528,185.777735 L101.423952,185.777735 L101.423952,156.929992 L57.7408528,156.929992 L57.7408528,185.777735 Z M102.383013,185.777735 L146.066112,185.777735 L146.066112,156.929992 L102.383013,156.929992 L102.383013,185.777735 Z M147.026133,185.777735 L190.709232,185.777735 L190.709232,156.929992 L147.026133,156.929992 L147.026133,185.777735 Z M191.668293,185.777735 L235.351392,185.777735 L235.351392,156.929992 L191.668293,156.929992 L191.668293,185.777735 Z M236.310933,185.777735 L280.0185,185.777735 L280.0185,156.929992 L236.310933,156.929992 L236.310933,185.777735 Z M280.978041,185.777735 L324.66114,185.777735 L324.66114,156.929992 L280.978041,156.929992 L280.978041,185.777735 Z M13.0737446,215.586269 L56.7808321,215.586269 L56.7808321,186.738526 L13.0737446,186.738526 L13.0737446,215.586269 Z M57.7408528,215.586269 L101.423952,215.586269 L101.423952,186.738526 L57.7408528,186.738526 L57.7408528,215.586269 Z M102.383013,215.586269 L146.066112,215.586269 L146.066112,186.738526 L102.383013,186.738526 L102.383013,215.586269 Z M147.026133,215.586269 L190.709232,215.586269 L190.709232,186.738526 L147.026133,186.738526 L147.026133,215.586269 Z M191.668293,215.586269 L235.351392,215.586269 L235.351392,186.738526 L191.668293,186.738526 L191.668293,215.586269 Z M236.310933,215.586269 L280.0185,215.586269 L280.0185,186.738526 L236.310933,186.738526 L236.310933,215.586269 Z M280.978041,215.586269 L324.66114,215.586269 L324.66114,186.738526 L280.978041,186.738526 L280.978041,215.586269 Z M13.0737446,245.370783 L56.7808321,245.370783 L56.7808321,216.54706 L13.0737446,216.54706 L13.0737446,245.370783 Z M57.7408528,245.370783 L101.423952,245.370783 L101.423952,216.54706 L57.7408528,216.54706 L57.7408528,245.370783 Z M102.383013,245.370783 L146.066112,245.370783 L146.066112,216.54706 L102.383013,216.54706 L102.383013,245.370783 Z M147.026133,245.370783 L190.709232,245.370783 L190.709232,216.54706 L147.026133,216.54706 L147.026133,245.370783 Z M191.668293,245.370783 L235.351392,245.370783 L235.351392,216.54706 L191.668293,216.54706 L191.668293,245.370783 Z M236.310933,245.370783 L280.0185,245.370783 L280.0185,216.54706 L236.310933,216.54706 L236.310933,245.370783 Z M280.978041,245.370783 L324.66114,245.370783 L324.66114,216.54706 L280.978041,216.54706 L280.978041,245.370783 Z M13.0737446,275.179797 L56.7808321,275.179797 L56.7808321,246.331574 L13.0737446,246.331574 L13.0737446,275.179797 Z M57.7408528,275.179797 L101.423952,275.179797 L101.423952,246.331574 L57.7408528,246.331574 L57.7408528,275.179797 Z M102.383013,275.179797 L146.066112,275.179797 L146.066112,246.331574 L102.383013,246.331574 L102.383013,275.179797 Z M147.026133,275.179797 L190.709232,275.179797 L190.709232,246.331574 L147.026133,246.331574 L147.026133,275.179797 Z M191.668293,275.179797 L235.351392,275.179797 L235.351392,246.331574 L191.668293,246.331574 L191.668293,275.179797 Z M236.310933,275.179797 L280.0185,275.179797 L280.0185,246.331574 L236.310933,246.331574 L236.310933,275.179797 Z M280.978041,275.179797 L324.66114,275.179797 L324.66114,246.331574 L280.978041,246.331574 L280.978041,275.179797 Z M13.0737446,304.988331 L56.7808321,304.988331 L56.7808321,276.140588 L13.0737446,276.140588 L13.0737446,304.988331 Z M57.7408528,304.988331 L101.423952,304.988331 L101.423952,276.140588 L57.7408528,276.140588 L57.7408528,304.988331 Z M102.383013,304.988331 L146.066112,304.988331 L146.066112,276.140588 L102.383013,276.140588 L102.383013,304.988331 Z M147.026133,304.988331 L190.709232,304.988331 L190.709232,276.140588 L147.026133,276.140588 L147.026133,304.988331 Z M191.668293,304.988331 L235.351392,304.988331 L235.351392,276.140588 L191.668293,276.140588 L191.668293,304.988331 Z M236.310933,304.988331 L280.0185,304.988331 L280.0185,276.140588 L236.310933,276.140588 L236.310933,304.988331 Z M280.978041,304.988331 L324.66114,304.988331 L324.66114,276.140588 L280.978041,276.140588 L280.978041,304.988331 Z M13.0737446,334.796385 L56.7808321,334.796385 L56.7808321,305.948642 L13.0737446,305.948642 L13.0737446,334.796385 Z M57.7408528,334.796385 L101.423952,334.796385 L101.423952,305.948642 L57.7408528,305.948642 L57.7408528,334.796385 Z M102.383013,334.796385 L146.066112,334.796385 L146.066112,305.948642 L102.383013,305.948642 L102.383013,334.796385 Z M147.026133,334.796385 L190.709232,334.796385 L190.709232,305.948642 L147.026133,305.948642 L147.026133,334.796385 Z M191.668293,334.796385 L235.351392,334.796385 L235.351392,305.948642 L191.668293,305.948642 L191.668293,334.796385 Z M236.310933,334.796385 L280.0185,334.796385 L280.0185,305.948642 L236.310933,305.948642 L236.310933,334.796385 Z M280.978041,334.796385 L324.66114,334.796385 L324.66114,305.948642 L280.978041,305.948642 L280.978041,334.796385 Z M13.0737446,364.604918 L56.7808321,364.604918 L56.7808321,335.757175 L13.0737446,335.757175 L13.0737446,364.604918 Z M57.7408528,364.604918 L101.423952,364.604918 L101.423952,335.757175 L57.7408528,335.757175 L57.7408528,364.604918 Z M102.383013,364.604918 L146.066112,364.604918 L146.066112,335.757175 L102.383013,335.757175 L102.383013,364.604918 Z M147.026133,364.604918 L190.709232,364.604918 L190.709232,335.757175 L147.026133,335.757175 L147.026133,364.604918 Z M191.668293,364.604918 L235.351392,364.604918 L235.351392,335.757175 L191.668293,335.757175 L191.668293,364.604918 Z M236.310933,364.604918 L280.0185,364.604918 L280.0185,335.757175 L236.310933,335.757175 L236.310933,364.604918 Z M280.978041,364.604918 L324.66114,364.604918 L324.66114,335.757175 L280.978041,335.757175 L280.978041,364.604918 Z M325.620681,379.977571 L324.66114,379.977571 L324.66114,365.565709 L280.978041,365.565709 L280.978041,379.977571 L280.0185,379.977571 L280.0185,365.565709 L236.310933,365.565709 L236.310933,379.977571 L235.351392,379.977571 L235.351392,365.565709 L191.668293,365.565709 L191.668293,379.977571 L190.708752,379.977571 L190.708752,365.565709 L147.026133,365.565709 L147.026133,379.977571 L146.066592,379.977571 L146.066592,365.565709 L102.383013,365.565709 L102.383013,379.977571 L101.423472,379.977571 L101.423472,365.565709 L57.7408528,365.565709 L57.7408528,379.977571 L56.7813119,379.977571 L56.7813119,365.565709 L13.0737446,365.565709 L13.0737446,379.977571 L12.1142037,379.977571 L12.1142037,365.565709 L-9.37916411e-13,365.565709 L-9.37916411e-13,364.604918 L12.1142037,364.604918 L12.1142037,335.757175 L-9.37916411e-13,335.757175 L-9.37916411e-13,334.796385 L12.1142037,334.796385 L12.1142037,305.949122 L-9.37916411e-13,305.949122 L-9.37916411e-13,304.988331 L12.1142037,304.988331 L12.1142037,276.140588 L-9.37916411e-13,276.140588 L-9.37916411e-13,275.179797 L12.1142037,275.179797 L12.1142037,246.331574 L-9.37916411e-13,246.331574 L-9.37916411e-13,245.370783 L12.1142037,245.370783 L12.1142037,216.54706 L-9.37916411e-13,216.54706 L-9.37916411e-13,215.586269 L12.1142037,215.586269 L12.1142037,186.738526 L-9.37916411e-13,186.738526 L-9.37916411e-13,185.777735 L12.1142037,185.777735 L12.1142037,156.929992 L-9.37916411e-13,156.929992 L-9.37916411e-13,155.969202 L12.1142037,155.969202 L12.1142037,127.121459 L-9.37916411e-13,127.121459 L-9.37916411e-13,126.160668 L12.1142037,126.160668 L12.1142037,97.3129249 L-9.37916411e-13,97.3129249 L-9.37916411e-13,96.3521342 L12.1142037,96.3521342 L12.1142037,71.3235345 L13.0737446,71.3235345 L13.0737446,96.3521342 L56.7813119,96.3521342 L56.7813119,71.3235345 L57.7408528,71.3235345 L57.7408528,96.3521342 L101.423472,96.3521342 L101.423472,71.3235345 L102.383013,71.3235345 L102.383013,96.3521342 L146.066592,96.3521342 L146.066592,71.3235345 L147.026133,71.3235345 L147.026133,96.3521342 L190.708752,96.3521342 L190.708752,71.3235345 L191.668293,71.3235345 L191.668293,96.3521342 L235.351392,96.3521342 L235.351392,71.3235345 L236.310933,71.3235345 L236.310933,96.3521342 L280.0185,96.3521342 L280.0185,71.3235345 L280.978041,71.3235345 L280.978041,96.3521342 L324.66114,96.3521342 L324.66114,71.3235345 L325.620681,71.3235345 L325.620681,96.3521342 L365.992884,96.3521342 L365.992884,97.3129249 L325.620681,97.3129249 L325.620681,126.160668 L365.992884,126.160668 L365.992884,127.121459 L325.620681,127.121459 L325.620681,155.969202 L365.992884,155.969202 L365.992884,156.929992 L325.620681,156.929992 L325.620681,185.777735 L365.992884,185.777735 L365.992884,186.738526 L325.620681,186.738526 L325.620681,215.586269 L365.992884,215.586269 L365.992884,216.54706 L325.620681,216.54706 L325.620681,245.370783 L365.992884,245.370783 L365.992884,246.331574 L325.620681,246.331574 L325.620681,275.179797 L365.992884,275.179797 L365.992884,276.140588 L325.620681,276.140588 L325.620681,304.988331 L365.992884,304.988331 L365.992884,305.949122 L325.620681,305.949122 L325.620681,334.796385 L365.992884,334.796385 L365.992884,335.757175 L325.620681,335.757175 L325.620681,364.604918 L365.992884,364.604918 L365.992884,365.565709 L325.620681,365.565709 L325.620681,379.977571 Z" id="Fill-2" fill="#B2E5F6"></path>
                    <polygon id="Fill-3" fill="#D0DEB2" points="350.157676 -5.68434189e-14 309.047107 21.4808797 314.606686 32.1495005 335.346203 21.3132217 275.686269 211.329294 187.29816 240.806835 148.582604 300.354245 93.8052931 279.132779 35.6969361 337.190483 44.1855146 345.709334 96.7601993 293.180501 153.337129 315.099021 195.079556 250.895138 285.309984 220.804132 345.821991 28.0728652 350.988639 45.7956119 362.526159 42.4232362"></polygon>
                    <path d="M31.6080376,36.0639972 C29.7257628,35.4466361 28.3689461,34.6705665 27.5369707,33.7349149 C26.7053038,32.7995546 26.2890077,31.5741509 26.2890077,30.0589953 C26.2890077,28.824273 26.6454805,27.7488415 27.3587344,26.8321185 C28.0719882,25.9153954 29.0473544,25.2141664 30.285758,24.7272664 C31.5235449,24.2412401 32.9451188,23.9977902 34.5495545,23.9977902 C36.6294928,23.9977902 38.6005775,24.3347179 40.4628084,25.007991 L40.4628084,28.9363881 C38.5805336,28.4314333 36.7679498,28.1789559 35.0250571,28.1789559 C32.9845898,28.1789559 31.9645103,28.6839107 31.9645103,29.6941115 C31.9645103,30.0686051 32.1427467,30.3866044 32.4995278,30.6481092 C32.8560006,30.9104877 33.5097395,31.1912123 34.4604363,31.4899918 L36.2431084,32.051441 C38.2832674,32.6874394 39.7347529,33.4498222 40.5963315,34.3380069 C41.4579101,35.2270652 41.8890077,36.4102436 41.8890077,37.8881246 C41.8890077,39.945801 41.1113051,41.545407 39.5562081,42.6860691 C38.0008028,43.8276048 35.8169447,44.3977902 33.0043253,44.3977902 C31.7958333,44.3977902 30.6271208,44.2996531 29.4981876,44.1030876 C28.3689461,43.9071046 27.4080732,43.640358 26.6161856,43.3034302 L26.6161856,39.3191212 C27.5863095,39.5622799 28.66097,39.7635047 29.8401671,39.9222131 C31.0181307,40.0815039 32.0930995,40.1607125 33.0638402,40.1607125 C34.0937874,40.1607125 34.8563801,40.0346194 35.3519266,39.782142 C35.8468563,39.5293734 36.0947837,39.1321656 36.0947837,38.5893537 C36.0947837,38.2905742 36.0303349,38.0471243 35.9017457,37.8598775 C35.7725397,37.6729219 35.5249207,37.4906256 35.1588886,37.3126975 C34.7919313,37.1350605 34.1829056,36.9058798 33.3315032,36.6251552 L31.6080376,36.0639972 Z" id="Fill-4" fill="#B2E5F6"></path>
                    <path d="M54.7211982,36.4498612 L58.7952788,36.4498612 L56.7289438,28.8844055 L54.7211982,36.4498612 Z M60.9488941,44.3977902 L59.8429427,40.453 L53.6735343,40.453 L52.6258704,44.3977902 L46.6890077,44.3977902 L53.7898072,23.9977902 L59.9882083,23.9977902 L67.0890077,44.3977902 L60.9488941,44.3977902 Z" id="Fill-6" fill="#B2E5F6"></path>
                    <polygon id="Fill-8" fill="#B2E5F6" points="71.8890077 44.3977902 71.8890077 23.9977902 77.6548986 23.9977902 77.6548986 39.8055983 86.2890077 39.8055983 86.2890077 44.3977902"></polygon>
                    <polygon id="Fill-10" fill="#B2E5F6" points="92.2890077 44.3977902 92.2890077 23.9977902 106.629539 23.9977902 106.629539 28.2954855 97.8707256 28.2954855 97.8707256 31.8575503 104.996467 31.8575503 104.996467 36.1555511 97.8707256 36.1555511 97.8707256 40.1000949 106.689008 40.1000949 106.689008 44.3977902"></polygon>
                    <path d="M118.008038,36.0639972 C116.125763,35.4466361 114.768946,34.6705665 113.936971,33.7349149 C113.105304,32.7995546 112.689008,31.5741509 112.689008,30.0589953 C112.689008,28.824273 113.04548,27.7488415 113.758734,26.8321185 C114.471988,25.9153954 115.447354,25.2141664 116.685758,24.7272664 C117.923545,24.2412401 119.345119,23.9977902 120.949555,23.9977902 C123.029493,23.9977902 125.000577,24.3347179 126.862808,25.007991 L126.862808,28.9363881 C124.980534,28.4314333 123.16795,28.1789559 121.425057,28.1789559 C119.38459,28.1789559 118.36451,28.6839107 118.36451,29.6941115 C118.36451,30.0686051 118.542747,30.3866044 118.899528,30.6481092 C119.256001,30.9104877 119.90974,31.1912123 120.860436,31.4899918 L122.643108,32.051441 C124.683267,32.6874394 126.134753,33.4498222 126.996331,34.3380069 C127.85791,35.2270652 128.289008,36.4102436 128.289008,37.8881246 C128.289008,39.945801 127.511305,41.545407 125.956208,42.6860691 C124.400803,43.8276048 122.216945,44.3977902 119.404325,44.3977902 C118.195833,44.3977902 117.027121,44.2996531 115.898188,44.1030876 C114.768946,43.9071046 113.808073,43.640358 113.016186,43.3034302 L113.016186,39.3191212 C113.98631,39.5622799 115.06097,39.7635047 116.240167,39.9222131 C117.418131,40.0815039 118.4931,40.1607125 119.46384,40.1607125 C120.493787,40.1607125 121.25638,40.0346194 121.751927,39.782142 C122.246856,39.5293734 122.494784,39.1321656 122.494784,38.5893537 C122.494784,38.2905742 122.430335,38.0471243 122.301746,37.8598775 C122.17254,37.6729219 121.924921,37.4906256 121.558889,37.3126975 C121.191931,37.1350605 120.582906,36.9058798 119.731503,36.6251552 L118.008038,36.0639972 Z" id="Fill-12" fill="#B2E5F6"></path>
                </g>
            </g>
        </g>
    </g>
</svg>