<?xml version="1.0" encoding="utf-8"?>
<!-- Generator: Adobe Illustrator 25.4.1, SVG Export Plug-In . SVG Version: 6.00 Build 0)  -->
<svg version="1.1" id="Layer_1" xmlns="http://www.w3.org/2000/svg" xmlns:xlink="http://www.w3.org/1999/xlink" x="0px" y="0px"
	 viewBox="0 0 80 80" style="enable-background:new 0 0 80 80;" xml:space="preserve">
<style type="text/css">
	.st0{fill:#B2E5F6;}
	.st1{fill:#232F3E;}
</style>
<g>
	<g>
		<path class="st0" d="M22.9,78.3c0,0.9-0.7,1.6-1.6,1.6H6.6c-0.9,0-1.6-0.7-1.6-1.6V21.4c0-0.9,0.7-1.6,1.6-1.6h14.8
			c0.9,0,1.6,0.7,1.6,1.6V78.3z"/>
		<path class="st0" d="M44,78.3c0,0.9-0.7,1.6-1.6,1.6H27.7c-0.9,0-1.6-0.7-1.6-1.6V5.6c0-0.9,0.7-1.6,1.6-1.6h14.8
			C43.3,4,44,4.7,44,5.6V78.3z"/>
		<path class="st0" d="M62.6,78L47.9,23c-0.2-0.8,0.3-1.7,1.1-1.9l14.3-3.8c0.8-0.2,1.7,0.3,1.9,1.1l14.7,55
			c0.2,0.8-0.3,1.7-1.1,1.9l-14.3,3.8C63.7,79.3,62.9,78.8,62.6,78z"/>
	</g>
	<g>
		<path class="st1" d="M77.8,70.9L62.3,13c-0.1-0.4-0.4-0.7-0.7-0.9c-0.3-0.2-0.8-0.3-1.1-0.1L43,16.6V9V1.5C43,0.7,42.3,0,41.5,0
			h-20C20.7,0,20,0.7,20,1.5V9v6H1.5C0.7,15,0,15.7,0,16.5v10v40v10C0,77.3,0.7,78,1.5,78h20h20c0.8,0,1.5-0.7,1.5-1.5V69V59V29.9
			l12.6,47c0.2,0.7,0.8,1.1,1.4,1.1c0.1,0,0.3,0,0.4-0.1l19.3-5.2c0.4-0.1,0.7-0.4,0.9-0.7C77.9,71.7,77.9,71.3,77.8,70.9z M3,28h17
			v31v6H3V28z M23,16.5v-6h17v7H23V16.5z M23,26.5v-6h17v37H23V26.5z M23,66.5v-6h17v7H23V66.5z M40,3v4.5H23V3H40z M20,18v1v6H3v-7
			H20z M3,68h17v1v6H3V68z M23,75v-4.5h17V75H23z M58.1,74.7L43.3,19.6l16.4-4.4l14.8,55.1L58.1,74.7z"/>
		<path class="st1" d="M55.1,30.7c-0.8,0.2-1.3,1-1.1,1.8l6.9,25.6c0.2,0.7,0.8,1.1,1.4,1.1c0.1,0,0.3,0,0.4-0.1
			c0.8-0.2,1.3-1,1.1-1.8l-6.9-25.6C56.7,30.9,55.9,30.4,55.1,30.7z"/>
	</g>
</g>
</svg>
