<?xml version="1.0" encoding="utf-8"?>
<!-- Generator: Adobe Illustrator 24.0.3, SVG Export Plug-In . SVG Version: 6.00 Build 0)  -->
<svg version="1.1" id="Layer_1" xmlns="http://www.w3.org/2000/svg" xmlns:xlink="http://www.w3.org/1999/xlink" x="0px" y="0px"
	 viewBox="0 0 80 80" style="enable-background:new 0 0 80 80;" xml:space="preserve">
<style type="text/css">
	.st0{fill:#B2E5F6;}
	.st1{fill:#232F3E;}
	.st2{enable-background:new    ;}
	.st3{clip-path:url(#SVGID_2_);}
	.st4{clip-path:url(#SVGID_4_);}
	.st5{clip-path:url(#SVGID_6_);fill:#232F3E;}
	.st6{clip-path:url(#SVGID_8_);}
	.st7{clip-path:url(#SVGID_10_);}
	.st8{clip-path:url(#SVGID_12_);fill:#232F3E;}
	.st9{display:none;}
	.st10{display:inline;}
</style>
<g>
	<path class="st0" d="M70.09,8.01H48.93v3.63h12.16v57.49H16.73V11.64h12.16V8.01h-14.1c-1,0-1.81,0.81-1.81,1.81v68.37
		c0,1,0.81,1.81,1.81,1.81h55.29c1,0,1.81-0.81,1.81-1.81V9.82C71.9,8.82,71.09,8.01,70.09,8.01z"/>
	<path class="st0" d="M50.97,38.34H25.56c-0.75,0-1.36-0.61-1.36-1.36V22.62c0-0.75,0.61-1.36,1.36-1.36h6.6
		c0.75,0,1.36,0.61,1.36,1.36s-0.61,1.36-1.36,1.36h-5.27v11.64h24.08c0.75,0,1.36,0.61,1.36,1.36
		C52.33,37.73,51.72,38.34,50.97,38.34z"/>
	<path class="st0" d="M50.97,61.55H25.56c-0.75,0-1.36-0.61-1.36-1.36V45.82c-0.01-0.74,0.58-1.35,1.33-1.37h6.6
		c0.75,0,1.36,0.61,1.36,1.36s-0.61,1.36-1.36,1.36h-5.24v11.65h24.08c0.75,0,1.36,0.61,1.36,1.36S51.72,61.55,50.97,61.55z"/>
	<path class="st1" d="M68.39,3.02H50.32V1.36c0-0.75-0.61-1.36-1.36-1.36c-0.01,0-0.02,0-0.03,0H28.88c-0.75,0-1.36,0.61-1.36,1.36
		v1.66H9.47c-0.75,0-1.37,0.61-1.37,1.36v72c0,0.75,0.61,1.36,1.36,1.36h58.92c0.75,0,1.36-0.61,1.36-1.36v-72
		C69.75,3.62,69.14,3.02,68.39,3.02z M30.24,2.72H47.6v11.12H30.24V2.72z M48.93,16.56c0.75,0,1.36-0.61,1.36-1.36v-2.21h9.43v54.76
		H18.09V12.99h9.43v2.21c0,0.75,0.61,1.36,1.36,1.36H48.93L48.93,16.56z M66.99,75.01H10.83V5.73h16.69v4.54h-10.8
		c-0.75,0-1.36,0.61-1.36,1.36v57.49c0,0.75,0.61,1.36,1.36,1.36h44.4c0.75,0,1.36-0.61,1.36-1.36V11.64c0-0.75-0.61-1.36-1.36-1.36
		h-10.8V5.73h16.69L66.99,75.01z"/>
	<path class="st1" d="M43.49,8.63h-9.13C33.6,8.63,33,9.24,33,9.99s0.61,1.36,1.36,1.36h9.13c0.75,0,1.36-0.61,1.36-1.36
		C44.85,9.24,44.25,8.63,43.49,8.63z"/>
	<g class="st2">
		<g>
			<g>
				<defs>
					<rect id="SVGID_1_" x="30.07" y="22.68" width="13.16" height="10"/>
				</defs>
				<clipPath id="SVGID_2_">
					<use xlink:href="#SVGID_1_"  style="overflow:visible;"/>
				</clipPath>
				<g class="st3">
					<g>
						<defs>
							<path id="SVGID_3_" d="M41.01,23.47l-6.55,6.55l-2.38-2.38c-0.41-0.41-1.08-0.41-1.49,0s-0.41,1.08,0,1.49l3.13,3.13
								c0.21,0.21,0.47,0.31,0.74,0.31s0.54-0.1,0.74-0.31l7.29-7.29c0.41-0.41,0.41-1.08,0-1.49
								C42.09,23.06,41.42,23.06,41.01,23.47"/>
						</defs>
						<clipPath id="SVGID_4_">
							<use xlink:href="#SVGID_3_"  style="overflow:visible;"/>
						</clipPath>
						<g class="st4">
							<g>
								<defs>
									<rect id="SVGID_5_" x="30.07" y="22.68" width="13.16" height="10"/>
								</defs>
								<clipPath id="SVGID_6_">
									<use xlink:href="#SVGID_5_"  style="overflow:visible;"/>
								</clipPath>
								<rect x="27.65" y="20.53" class="st5" width="17.79" height="14.66"/>
							</g>
						</g>
					</g>
				</g>
			</g>
		</g>
	</g>
	<g class="st2">
		<g>
			<g>
				<defs>
					<rect id="SVGID_7_" x="30.07" y="45.68" width="13.16" height="10"/>
				</defs>
				<clipPath id="SVGID_8_">
					<use xlink:href="#SVGID_7_"  style="overflow:visible;"/>
				</clipPath>
				<g class="st6">
					<g>
						<defs>
							<path id="SVGID_9_" d="M41.01,46.47l-6.55,6.55l-2.38-2.38c-0.41-0.41-1.08-0.41-1.49,0s-0.41,1.08,0,1.49l3.13,3.13
								c0.21,0.21,0.47,0.31,0.74,0.31s0.54-0.1,0.74-0.31l7.29-7.29c0.41-0.41,0.41-1.08,0-1.49
								C42.09,46.06,41.42,46.06,41.01,46.47"/>
						</defs>
						<clipPath id="SVGID_10_">
							<use xlink:href="#SVGID_9_"  style="overflow:visible;"/>
						</clipPath>
						<g class="st7">
							<g>
								<defs>
									<rect id="SVGID_11_" x="30.07" y="45.68" width="13.16" height="10"/>
								</defs>
								<clipPath id="SVGID_12_">
									<use xlink:href="#SVGID_11_"  style="overflow:visible;"/>
								</clipPath>
								<rect x="27.65" y="43.53" class="st8" width="17.79" height="14.66"/>
							</g>
						</g>
					</g>
				</g>
			</g>
		</g>
	</g>
</g>
<g id="Pound" class="st9">
	<g class="st10">
		<g>
			<g>
				<defs>
					<path id="SVGID_13_" d="M241.72,145.37h0.68c4.01-0.01,18.46-0.15,18.49,0.75c0.3,0.07,0.59,0.24,0.81,0.49
						c0.59,0.66,0.54,1.68-0.12,2.27c-3.66,3.3-5.83,7.42-6.52,12.42c-0.09,0.68-0.59,1.19-1.22,1.34
						c-0.09,0.06-0.18,0.12-0.28,0.16c-3.63,1.63-7.5,2.45-11.5,2.45s-7.87-0.82-11.5-2.45c-0.04-0.02-0.08-0.06-0.13-0.13
						c-0.71-0.09-1.29-0.64-1.39-1.37c-0.69-5-2.86-9.11-6.52-12.42c-0.66-0.59-0.71-1.61-0.12-2.27c0.49-0.55,1.27-0.68,1.9-0.37
						C225.18,145.2,237.91,145.36,241.72,145.37z"/>
				</defs>
				<clipPath id="SVGID_14_">
					<use xlink:href="#SVGID_13_"  style="overflow:visible;"/>
				</clipPath>
			</g>
		</g>
		<g>
			<g>
				<defs>
					<ellipse id="SVGID_15_" cx="242.24" cy="131.44" rx="26.65" ry="26.76"/>
				</defs>
				<clipPath id="SVGID_16_">
					<use xlink:href="#SVGID_15_"  style="overflow:visible;"/>
				</clipPath>
			</g>
		</g>
		<g>
			<g>
				<defs>
					<path id="SVGID_17_" d="M239.36,156.74c-15.58,0-28.25-12.73-28.25-28.37S223.78,100,239.36,100s28.25,12.73,28.25,28.37
						S254.93,156.74,239.36,156.74z M239.36,103.21c-13.81,0-25.05,11.29-25.05,25.16s11.24,25.16,25.05,25.16
						s25.05-11.29,25.05-25.16S253.17,103.21,239.36,103.21z"/>
				</defs>
				<clipPath id="SVGID_18_">
					<use xlink:href="#SVGID_17_"  style="overflow:visible;"/>
				</clipPath>
			</g>
		</g>
		<g>
			<g>
				<defs>
					<path id="SVGID_19_" d="M239.36,165.22c-4,0-7.87-0.82-11.5-2.45c-0.81-0.36-1.17-1.31-0.81-2.12s1.3-1.17,2.11-0.81
						c3.21,1.44,6.64,2.17,10.19,2.17s6.98-0.73,10.19-2.17c0.81-0.36,1.75,0,2.11,0.81s0,1.76-0.81,2.12
						C247.23,164.4,243.36,165.22,239.36,165.22"/>
				</defs>
				<clipPath id="SVGID_20_">
					<use xlink:href="#SVGID_19_"  style="overflow:visible;"/>
				</clipPath>
			</g>
		</g>
		<g>
			<g>
				<defs>
					<path id="SVGID_21_" d="M239.36,172.61c-3.43,0-6.74-0.82-9.85-2.45c-0.69-0.36-1-1.31-0.69-2.12s1.12-1.18,1.81-0.81
						c2.75,1.44,5.69,2.17,8.73,2.17s5.98-0.73,8.73-2.17c0.69-0.36,1.5,0,1.81,0.81s0,1.76-0.69,2.12
						C246.1,171.79,242.78,172.61,239.36,172.61"/>
				</defs>
				<clipPath id="SVGID_22_">
					<use xlink:href="#SVGID_21_"  style="overflow:visible;"/>
				</clipPath>
			</g>
		</g>
		<g>
			<g>
				<defs>
					<path id="SVGID_23_" d="M239.36,180c-2.38,0-4.75-0.3-7.06-0.9c-0.86-0.22-1.37-1.1-1.15-1.96s1.09-1.37,1.95-1.15
						c4.1,1.06,8.43,1.06,12.53,0c0.85-0.22,1.73,0.3,1.95,1.15c0.22,0.86-0.29,1.73-1.15,1.96C244.11,179.7,241.73,180,239.36,180"
						/>
				</defs>
				<clipPath id="SVGID_24_">
					<use xlink:href="#SVGID_23_"  style="overflow:visible;"/>
				</clipPath>
			</g>
		</g>
		<g>
			<g>
				<defs>
					<path id="SVGID_25_" d="M229.39,160.89c-0.84-5.79-3.5-10.65-7.95-14.49c-0.69-0.6-1.76-0.54-2.38,0.12
						c-0.62,0.67-0.56,1.69,0.13,2.29c3.85,3.33,6.13,7.49,6.86,12.53c0.13,0.89,0.98,1.5,1.9,1.38S229.52,161.78,229.39,160.89z"/>
				</defs>
				<clipPath id="SVGID_26_">
					<use xlink:href="#SVGID_25_"  style="overflow:visible;"/>
				</clipPath>
			</g>
		</g>
		<g>
			<g>
				<defs>
					<path id="SVGID_27_" d="M248.57,160.89c0.84-5.79,3.5-10.65,7.95-14.49c0.69-0.6,1.76-0.54,2.38,0.12
						c0.62,0.67,0.56,1.69-0.13,2.29c-3.85,3.33-6.13,7.49-6.86,12.53c-0.13,0.89-0.98,1.5-1.9,1.38S248.44,161.78,248.57,160.89z"
						/>
				</defs>
				<clipPath id="SVGID_28_">
					<use xlink:href="#SVGID_27_"  style="overflow:visible;"/>
				</clipPath>
			</g>
		</g>
	</g>
</g>
<g id="Yen" class="st9">
	<g class="st10">
		<g>
			<g>
				<defs>
					<path id="SVGID_29_" d="M241.72,145.37h0.68c4.01-0.01,18.46-0.15,18.49,0.75c0.3,0.07,0.59,0.24,0.81,0.49
						c0.59,0.66,0.54,1.68-0.12,2.27c-3.66,3.3-5.83,7.42-6.52,12.42c-0.09,0.68-0.59,1.19-1.22,1.34
						c-0.09,0.06-0.18,0.12-0.28,0.16c-3.63,1.63-7.5,2.45-11.5,2.45s-7.87-0.82-11.5-2.45c-0.04-0.02-0.08-0.06-0.13-0.13
						c-0.71-0.09-1.29-0.64-1.39-1.37c-0.69-5-2.86-9.11-6.52-12.42c-0.66-0.59-0.71-1.61-0.12-2.27c0.49-0.55,1.27-0.68,1.9-0.37
						C225.18,145.2,237.91,145.36,241.72,145.37z"/>
				</defs>
				<clipPath id="SVGID_30_">
					<use xlink:href="#SVGID_29_"  style="overflow:visible;"/>
				</clipPath>
			</g>
		</g>
		<g>
			<g>
				<defs>
					<ellipse id="SVGID_31_" cx="242.24" cy="131.44" rx="26.65" ry="26.76"/>
				</defs>
				<clipPath id="SVGID_32_">
					<use xlink:href="#SVGID_31_"  style="overflow:visible;"/>
				</clipPath>
			</g>
		</g>
		<g>
			<g>
				<defs>
					<path id="SVGID_33_" d="M239.36,156.74c-15.58,0-28.25-12.73-28.25-28.37S223.78,100,239.36,100s28.25,12.73,28.25,28.37
						S254.93,156.74,239.36,156.74z M239.36,103.21c-13.81,0-25.05,11.29-25.05,25.16s11.24,25.16,25.05,25.16
						s25.05-11.29,25.05-25.16S253.17,103.21,239.36,103.21z"/>
				</defs>
				<clipPath id="SVGID_34_">
					<use xlink:href="#SVGID_33_"  style="overflow:visible;"/>
				</clipPath>
			</g>
		</g>
		<g>
			<g>
				<defs>
					<path id="SVGID_35_" d="M239.36,165.22c-4,0-7.87-0.82-11.5-2.45c-0.81-0.36-1.17-1.31-0.81-2.12s1.3-1.17,2.11-0.81
						c3.21,1.44,6.64,2.17,10.19,2.17s6.98-0.73,10.19-2.17c0.81-0.36,1.75,0,2.11,0.81s0,1.76-0.81,2.12
						C247.23,164.4,243.36,165.22,239.36,165.22"/>
				</defs>
				<clipPath id="SVGID_36_">
					<use xlink:href="#SVGID_35_"  style="overflow:visible;"/>
				</clipPath>
			</g>
		</g>
		<g>
			<g>
				<defs>
					<path id="SVGID_37_" d="M239.36,172.61c-3.43,0-6.74-0.82-9.85-2.45c-0.69-0.36-1-1.31-0.69-2.12s1.12-1.18,1.81-0.81
						c2.75,1.44,5.69,2.17,8.73,2.17s5.98-0.73,8.73-2.17c0.69-0.36,1.5,0,1.81,0.81s0,1.76-0.69,2.12
						C246.1,171.79,242.78,172.61,239.36,172.61"/>
				</defs>
				<clipPath id="SVGID_38_">
					<use xlink:href="#SVGID_37_"  style="overflow:visible;"/>
				</clipPath>
			</g>
		</g>
		<g>
			<g>
				<defs>
					<path id="SVGID_39_" d="M239.36,180c-2.38,0-4.75-0.3-7.06-0.9c-0.86-0.22-1.37-1.1-1.15-1.96s1.09-1.37,1.95-1.15
						c4.1,1.06,8.43,1.06,12.53,0c0.85-0.22,1.73,0.3,1.95,1.15c0.22,0.86-0.29,1.73-1.15,1.96C244.11,179.7,241.73,180,239.36,180"
						/>
				</defs>
				<clipPath id="SVGID_40_">
					<use xlink:href="#SVGID_39_"  style="overflow:visible;"/>
				</clipPath>
			</g>
		</g>
		<g>
			<g>
				<defs>
					<path id="SVGID_41_" d="M229.39,160.89c-0.84-5.79-3.5-10.65-7.95-14.49c-0.69-0.6-1.76-0.54-2.38,0.12
						c-0.62,0.67-0.56,1.69,0.13,2.29c3.85,3.33,6.13,7.49,6.86,12.53c0.13,0.89,0.98,1.5,1.9,1.38S229.52,161.78,229.39,160.89z"/>
				</defs>
				<clipPath id="SVGID_42_">
					<use xlink:href="#SVGID_41_"  style="overflow:visible;"/>
				</clipPath>
			</g>
		</g>
		<g>
			<g>
				<defs>
					<path id="SVGID_43_" d="M248.57,160.89c0.84-5.79,3.5-10.65,7.95-14.49c0.69-0.6,1.76-0.54,2.38,0.12
						c0.62,0.67,0.56,1.69-0.13,2.29c-3.85,3.33-6.13,7.49-6.86,12.53c-0.13,0.89-0.98,1.5-1.9,1.38S248.44,161.78,248.57,160.89z"
						/>
				</defs>
				<clipPath id="SVGID_44_">
					<use xlink:href="#SVGID_43_"  style="overflow:visible;"/>
				</clipPath>
			</g>
		</g>
	</g>
</g>
<g id="Euro" class="st9">
	<g class="st10">
		<g>
			<g>
				<defs>
					<path id="SVGID_45_" d="M241.72,145.37h0.68c4.01-0.01,18.46-0.15,18.49,0.75c0.3,0.07,0.59,0.24,0.81,0.49
						c0.59,0.66,0.54,1.68-0.12,2.27c-3.66,3.3-5.83,7.42-6.52,12.42c-0.09,0.68-0.59,1.19-1.22,1.34
						c-0.09,0.06-0.18,0.12-0.28,0.16c-3.63,1.63-7.5,2.45-11.5,2.45s-7.87-0.82-11.5-2.45c-0.04-0.02-0.08-0.06-0.13-0.13
						c-0.71-0.09-1.29-0.64-1.39-1.37c-0.69-5-2.86-9.11-6.52-12.42c-0.66-0.59-0.71-1.61-0.12-2.27c0.49-0.55,1.27-0.68,1.9-0.37
						C225.18,145.2,237.91,145.36,241.72,145.37z"/>
				</defs>
				<clipPath id="SVGID_46_">
					<use xlink:href="#SVGID_45_"  style="overflow:visible;"/>
				</clipPath>
			</g>
		</g>
		<g>
			<g>
				<defs>
					<ellipse id="SVGID_47_" cx="242.24" cy="131.44" rx="26.65" ry="26.76"/>
				</defs>
				<clipPath id="SVGID_48_">
					<use xlink:href="#SVGID_47_"  style="overflow:visible;"/>
				</clipPath>
			</g>
		</g>
		<g>
			<g>
				<defs>
					<path id="SVGID_49_" d="M239.36,156.74c-15.58,0-28.25-12.73-28.25-28.37S223.78,100,239.36,100s28.25,12.73,28.25,28.37
						S254.93,156.74,239.36,156.74z M239.36,103.21c-13.81,0-25.05,11.29-25.05,25.16s11.24,25.16,25.05,25.16
						s25.05-11.29,25.05-25.16S253.17,103.21,239.36,103.21z"/>
				</defs>
				<clipPath id="SVGID_50_">
					<use xlink:href="#SVGID_49_"  style="overflow:visible;"/>
				</clipPath>
			</g>
		</g>
		<g>
			<g>
				<defs>
					<path id="SVGID_51_" d="M239.36,165.22c-4,0-7.87-0.82-11.5-2.45c-0.81-0.36-1.17-1.31-0.81-2.12s1.3-1.17,2.11-0.81
						c3.21,1.44,6.64,2.17,10.19,2.17s6.98-0.73,10.19-2.17c0.81-0.36,1.75,0,2.11,0.81s0,1.76-0.81,2.12
						C247.23,164.4,243.36,165.22,239.36,165.22"/>
				</defs>
				<clipPath id="SVGID_52_">
					<use xlink:href="#SVGID_51_"  style="overflow:visible;"/>
				</clipPath>
			</g>
		</g>
		<g>
			<g>
				<defs>
					<path id="SVGID_53_" d="M239.36,172.61c-3.43,0-6.74-0.82-9.85-2.45c-0.69-0.36-1-1.31-0.69-2.12s1.12-1.18,1.81-0.81
						c2.75,1.44,5.69,2.17,8.73,2.17s5.98-0.73,8.73-2.17c0.69-0.36,1.5,0,1.81,0.81s0,1.76-0.69,2.12
						C246.1,171.79,242.78,172.61,239.36,172.61"/>
				</defs>
				<clipPath id="SVGID_54_">
					<use xlink:href="#SVGID_53_"  style="overflow:visible;"/>
				</clipPath>
			</g>
		</g>
		<g>
			<g>
				<defs>
					<path id="SVGID_55_" d="M239.36,180c-2.38,0-4.75-0.3-7.06-0.9c-0.86-0.22-1.37-1.1-1.15-1.96s1.09-1.37,1.95-1.15
						c4.1,1.06,8.43,1.06,12.53,0c0.85-0.22,1.73,0.3,1.95,1.15c0.22,0.86-0.29,1.73-1.15,1.96C244.11,179.7,241.73,180,239.36,180"
						/>
				</defs>
				<clipPath id="SVGID_56_">
					<use xlink:href="#SVGID_55_"  style="overflow:visible;"/>
				</clipPath>
			</g>
		</g>
		<g>
			<g>
				<defs>
					<path id="SVGID_57_" d="M229.39,160.89c-0.84-5.79-3.5-10.65-7.95-14.49c-0.69-0.6-1.76-0.54-2.38,0.12
						c-0.62,0.67-0.56,1.69,0.13,2.29c3.85,3.33,6.13,7.49,6.86,12.53c0.13,0.89,0.98,1.5,1.9,1.38S229.52,161.78,229.39,160.89z"/>
				</defs>
				<clipPath id="SVGID_58_">
					<use xlink:href="#SVGID_57_"  style="overflow:visible;"/>
				</clipPath>
			</g>
		</g>
		<g>
			<g>
				<defs>
					<path id="SVGID_59_" d="M248.57,160.89c0.84-5.79,3.5-10.65,7.95-14.49c0.69-0.6,1.76-0.54,2.38,0.12
						c0.62,0.67,0.56,1.69-0.13,2.29c-3.85,3.33-6.13,7.49-6.86,12.53c-0.13,0.89-0.98,1.5-1.9,1.38S248.44,161.78,248.57,160.89z"
						/>
				</defs>
				<clipPath id="SVGID_60_">
					<use xlink:href="#SVGID_59_"  style="overflow:visible;"/>
				</clipPath>
			</g>
		</g>
	</g>
</g>
<g id="Rupee" class="st9">
	<g class="st10">
		<g>
			<g>
				<defs>
					<path id="SVGID_61_" d="M241.72,145.37h0.68c4.01-0.01,18.46-0.15,18.49,0.75c0.3,0.07,0.59,0.24,0.81,0.49
						c0.59,0.66,0.54,1.68-0.12,2.27c-3.66,3.3-5.83,7.42-6.52,12.42c-0.09,0.68-0.59,1.19-1.22,1.34
						c-0.09,0.06-0.18,0.12-0.28,0.16c-3.63,1.63-7.5,2.45-11.5,2.45s-7.87-0.82-11.5-2.45c-0.04-0.02-0.08-0.06-0.13-0.13
						c-0.71-0.09-1.29-0.64-1.39-1.37c-0.69-5-2.86-9.11-6.52-12.42c-0.66-0.59-0.71-1.61-0.12-2.27c0.49-0.55,1.27-0.68,1.9-0.37
						C225.18,145.2,237.91,145.36,241.72,145.37z"/>
				</defs>
				<clipPath id="SVGID_62_">
					<use xlink:href="#SVGID_61_"  style="overflow:visible;"/>
				</clipPath>
			</g>
		</g>
		<g>
			<g>
				<defs>
					<ellipse id="SVGID_63_" cx="242.24" cy="131.44" rx="26.65" ry="26.76"/>
				</defs>
				<clipPath id="SVGID_64_">
					<use xlink:href="#SVGID_63_"  style="overflow:visible;"/>
				</clipPath>
			</g>
		</g>
		<g>
			<g>
				<defs>
					<path id="SVGID_65_" d="M239.36,156.74c-15.58,0-28.25-12.73-28.25-28.37S223.78,100,239.36,100s28.25,12.73,28.25,28.37
						S254.93,156.74,239.36,156.74z M239.36,103.21c-13.81,0-25.05,11.29-25.05,25.16s11.24,25.16,25.05,25.16
						s25.05-11.29,25.05-25.16S253.17,103.21,239.36,103.21z"/>
				</defs>
				<clipPath id="SVGID_66_">
					<use xlink:href="#SVGID_65_"  style="overflow:visible;"/>
				</clipPath>
			</g>
		</g>
		<g>
			<g>
				<defs>
					<path id="SVGID_67_" d="M239.36,165.22c-4,0-7.87-0.82-11.5-2.45c-0.81-0.36-1.17-1.31-0.81-2.12s1.3-1.17,2.11-0.81
						c3.21,1.44,6.64,2.17,10.19,2.17s6.98-0.73,10.19-2.17c0.81-0.36,1.75,0,2.11,0.81s0,1.76-0.81,2.12
						C247.23,164.4,243.36,165.22,239.36,165.22"/>
				</defs>
				<clipPath id="SVGID_68_">
					<use xlink:href="#SVGID_67_"  style="overflow:visible;"/>
				</clipPath>
			</g>
		</g>
		<g>
			<g>
				<defs>
					<path id="SVGID_69_" d="M239.36,172.61c-3.43,0-6.74-0.82-9.85-2.45c-0.69-0.36-1-1.31-0.69-2.12s1.12-1.18,1.81-0.81
						c2.75,1.44,5.69,2.17,8.73,2.17s5.98-0.73,8.73-2.17c0.69-0.36,1.5,0,1.81,0.81s0,1.76-0.69,2.12
						C246.1,171.79,242.78,172.61,239.36,172.61"/>
				</defs>
				<clipPath id="SVGID_70_">
					<use xlink:href="#SVGID_69_"  style="overflow:visible;"/>
				</clipPath>
			</g>
		</g>
		<g>
			<g>
				<defs>
					<path id="SVGID_71_" d="M239.36,180c-2.38,0-4.75-0.3-7.06-0.9c-0.86-0.22-1.37-1.1-1.15-1.96s1.09-1.37,1.95-1.15
						c4.1,1.06,8.43,1.06,12.53,0c0.85-0.22,1.73,0.3,1.95,1.15c0.22,0.86-0.29,1.73-1.15,1.96C244.11,179.7,241.73,180,239.36,180"
						/>
				</defs>
				<clipPath id="SVGID_72_">
					<use xlink:href="#SVGID_71_"  style="overflow:visible;"/>
				</clipPath>
			</g>
		</g>
		<g>
			<g>
				<defs>
					<path id="SVGID_73_" d="M229.39,160.89c-0.84-5.79-3.5-10.65-7.95-14.49c-0.69-0.6-1.76-0.54-2.38,0.12
						c-0.62,0.67-0.56,1.69,0.13,2.29c3.85,3.33,6.13,7.49,6.86,12.53c0.13,0.89,0.98,1.5,1.9,1.38S229.52,161.78,229.39,160.89z"/>
				</defs>
				<clipPath id="SVGID_74_">
					<use xlink:href="#SVGID_73_"  style="overflow:visible;"/>
				</clipPath>
			</g>
		</g>
		<g>
			<g>
				<defs>
					<path id="SVGID_75_" d="M248.57,160.89c0.84-5.79,3.5-10.65,7.95-14.49c0.69-0.6,1.76-0.54,2.38,0.12
						c0.62,0.67,0.56,1.69-0.13,2.29c-3.85,3.33-6.13,7.49-6.86,12.53c-0.13,0.89-0.98,1.5-1.9,1.38S248.44,161.78,248.57,160.89z"
						/>
				</defs>
				<clipPath id="SVGID_76_">
					<use xlink:href="#SVGID_75_"  style="overflow:visible;"/>
				</clipPath>
			</g>
		</g>
	</g>
</g>
</svg>
