<?xml version="1.0" encoding="utf-8"?>
<!-- Generator: Adobe Illustrator 24.0.3, SVG Export Plug-In . SVG Version: 6.00 Build 0)  -->
<svg version="1.1" id="Layer_1" xmlns="http://www.w3.org/2000/svg" xmlns:xlink="http://www.w3.org/1999/xlink" x="0px" y="0px"
	 viewBox="0 0 80 80" style="enable-background:new 0 0 80 80;" xml:space="preserve">
<style type="text/css">
	.st0{fill:#B2E5F6;}
	.st1{fill:#232F3E;}
	.st2{display:none;}
	.st3{display:inline;}
</style>
<g>
	<ellipse class="st0" cx="40" cy="71.44" rx="27.66" ry="7.68"/>
	
		<ellipse transform="matrix(0.8844 -0.4667 0.4667 0.8844 -13.9994 13.2942)" class="st0" cx="19.84" cy="34.91" rx="8.47" ry="5.3"/>
	<ellipse transform="matrix(0.4667 -0.8844 0.8844 0.4667 1.1962 71.8138)" class="st0" cx="60.15" cy="34.92" rx="5.3" ry="8.47"/>
	<path class="st0" d="M13.07,65.01c0.66,0,1.21-0.53,1.23-1.19l0.58-18.71c0.02-0.68-0.51-1.25-1.2-1.27s-1.25,0.51-1.27,1.2
		l-0.57,18.71c-0.02,0.68,0.52,1.25,1.2,1.26l0,0H13.07z"/>
	<path class="st0" d="M29.38,37.42l8.59,6.62l-3.87,2.98c-0.54,0.42-0.64,1.19-0.22,1.73s1.19,0.64,1.73,0.22l0,0l4.38-3.38
		l4.41,3.38c0.54,0.42,1.31,0.31,1.73-0.22c0.42-0.54,0.31-1.31-0.22-1.73l0,0l-3.88-2.98l8.6-6.62c0.54-0.42,0.64-1.19,0.22-1.73
		s-1.19-0.64-1.73-0.22l0,0L40,42.5l-9.11-7.02c-0.54-0.42-1.31-0.31-1.73,0.22S28.85,37.01,29.38,37.42z"/>
	<path class="st0" d="M67.59,45.02c-0.02-0.68-0.59-1.22-1.27-1.2s-1.22,0.59-1.2,1.27l0,0L65.7,63.8c0.02,0.67,0.56,1.21,1.22,1.21
		l0,0c0.68-0.02,1.21-0.59,1.19-1.26L67.59,45.02z"/>
	<path class="st0" d="M49.57,54.57l-2.06,4.02c-0.31,0.61-0.07,1.35,0.54,1.66s1.35,0.07,1.66-0.54l2.09-4.02
		c0.31-0.61,0.07-1.35-0.54-1.66s-1.35-0.07-1.66,0.54l0,0H49.57z"/>
	<path class="st0" d="M52.35,51.86c0.6,0.3,1.34,0.06,1.65-0.54l3.96-7.69c0.31-0.61,0.07-1.35-0.54-1.66s-1.35-0.07-1.66,0.54l0,0
		l-3.96,7.7C51.5,50.82,51.74,51.55,52.35,51.86z"/>
	<path class="st0" d="M28.23,55.7l2.06,4.02c0.31,0.61,1.06,0.85,1.66,0.54c0.61-0.31,0.85-1.06,0.54-1.66l0,0l-2.06-4.02
		c-0.31-0.61-1.06-0.85-1.66-0.54C28.15,54.34,27.91,55.09,28.23,55.7L28.23,55.7z"/>
	<path class="st0" d="M22.58,41.98c-0.6,0.31-0.83,1.04-0.54,1.65l3.94,7.7c0.31,0.61,1.06,0.85,1.66,0.54s0.85-1.06,0.54-1.66l0,0
		l-3.94-7.7C23.93,41.9,23.19,41.67,22.58,41.98z"/>
	<path class="st1" d="M10.58,26.81h0.14c0.34,0,0.67-0.14,0.9-0.39c0.77-0.82,1.67-1.5,2.66-2.02c1.18-0.63,2.46-1.01,3.79-1.12
		c0.68-0.05,1.19-0.64,1.14-1.31c-0.04-0.67-0.62-1.18-1.29-1.14c-0.01,0-0.02,0-0.03,0c-1.67,0.14-3.29,0.63-4.76,1.43
		c-0.74,0.39-1.44,0.86-2.1,1.38l-1.8-3.29c-0.34-0.58-1.1-0.78-1.69-0.43c-0.56,0.33-0.77,1.04-0.47,1.62l2.56,4.66
		C9.85,26.54,10.19,26.77,10.58,26.81z"/>
	<path class="st1" d="M18.57,11.69V2.11c0-0.68-0.55-1.23-1.23-1.23H5.38C4.7,0.87,4.13,1.4,4.11,2.08c0,0.01,0,0.02,0,0.03v7.96
		c-1.26,0.92-2.32,2.07-3.13,3.4c-1.13,2.01-1.3,4.02-0.44,5.66l9.44,17.92c0.98,1.86,3.1,2.84,5.64,2.84
		c2.1-0.04,4.14-0.59,5.98-1.59c4.81-2.54,7.24-7.06,5.54-10.3L18.57,11.69z M16.1,3.34v4.98c-0.99-0.62-2.12-0.98-3.29-1.06
		c-2.15-0.11-4.3,0.34-6.23,1.3V3.34H16.1z M3.15,14.71c0.27-0.47,0.6-0.92,0.96-1.33v3.33c0,0.68,0.55,1.23,1.23,1.23
		s1.23-0.55,1.23-1.23v-5.34c0.21-0.12,0.41-0.24,0.62-0.35c1.63-0.91,3.49-1.35,5.35-1.28c0.82,0.06,2.33,0.34,2.94,1.5l7.4,13.98
		c-0.23,0-0.47-0.06-0.71-0.09c-2.33-0.1-4.64,0.43-6.69,1.56c-2.31,1.14-4.21,2.99-5.4,5.28L2.7,17.98
		C2.11,16.82,2.73,15.43,3.15,14.71z M20.46,36.09c-3.46,1.79-7.3,1.73-8.29-0.22c-0.98-1.94,1.03-5.14,4.5-6.96
		c1.48-0.82,3.14-1.26,4.82-1.3h0.54c0.82,0.06,2.33,0.34,2.94,1.5C25.99,31.07,23.93,34.26,20.46,36.09L20.46,36.09L20.46,36.09z"
		/>
	<path class="st1" d="M72.42,19.85c-0.59-0.31-1.32-0.1-1.65,0.49l-1.8,3.29c-0.66-0.52-1.38-0.98-2.13-1.37
		c-1.46-0.79-3.08-1.27-4.74-1.41c-0.67-0.06-1.26,0.44-1.31,1.11c0,0.01,0,0.02,0,0.03c-0.05,0.68,0.46,1.26,1.14,1.31
		c1.32,0.11,2.59,0.5,3.76,1.13c0.99,0.52,1.9,1.2,2.66,2.02c0.23,0.25,0.56,0.39,0.9,0.39h0.14c0.39-0.05,0.74-0.29,0.93-0.63
		l2.56-4.66c0.34-0.59,0.14-1.34-0.45-1.69C72.45,19.86,72.43,19.86,72.42,19.85z"/>
	<path class="st1" d="M78.98,13.47c-0.81-1.33-1.86-2.49-3.13-3.4V2.11c0-0.68-0.55-1.23-1.23-1.23H62.67
		c-0.68,0-1.23,0.55-1.23,1.23v9.58l-8.59,16.27c-1.71,3.24,0.72,7.76,5.54,10.3c1.84,1.01,3.89,1.55,5.98,1.59
		c2.54,0,4.66-0.97,5.64-2.84l9.45-17.89C80.32,17.5,80.15,15.48,78.98,13.47z M73.39,3.34v5.23c-1.9-0.95-4.02-1.41-6.16-1.3
		c-1.17,0.06-2.3,0.42-3.29,1.06V3.34H73.39z M59.54,36.09c-3.47-1.83-5.54-5.02-4.5-6.96c0.62-1.16,2.1-1.44,2.94-1.5
		c1.86-0.07,3.7,0.37,5.33,1.27c3.47,1.83,5.54,5.02,4.5,6.96S63.01,37.88,59.54,36.09z M77.28,17.98l-7.4,13.98
		c-1.19-2.29-3.09-4.14-5.4-5.28c-2.04-1.13-4.35-1.66-6.69-1.56c-0.25,0-0.49,0.05-0.71,0.09l7.4-13.98
		c0.62-1.16,2.1-1.44,2.94-1.5c1.86-0.07,3.72,0.38,5.35,1.28c0.22,0.11,0.42,0.23,0.62,0.35v5.34c0,0.68,0.55,1.23,1.23,1.23
		s1.23-0.55,1.23-1.23v-3.33c0.38,0.41,0.71,0.86,0.99,1.33C77.28,15.43,77.88,16.82,77.28,17.98z"/>
</g>
<g id="Pound" class="st2">
	<g class="st3">
		<g>
			<g>
				<defs>
					<path id="SVGID_1_" d="M241.72-354.63h0.68c4.01-0.01,18.46-0.15,18.49,0.75c0.3,0.07,0.59,0.24,0.81,0.49
						c0.59,0.66,0.54,1.68-0.12,2.27c-3.66,3.3-5.83,7.42-6.52,12.42c-0.09,0.68-0.59,1.19-1.22,1.34
						c-0.09,0.06-0.18,0.12-0.28,0.16c-3.63,1.63-7.5,2.45-11.5,2.45s-7.87-0.82-11.5-2.45c-0.04-0.02-0.08-0.06-0.13-0.13
						c-0.71-0.09-1.29-0.64-1.39-1.37c-0.69-5-2.86-9.11-6.52-12.42c-0.66-0.59-0.71-1.61-0.12-2.27c0.49-0.55,1.27-0.68,1.9-0.37
						C225.18-354.8,237.91-354.64,241.72-354.63z"/>
				</defs>
				<clipPath id="SVGID_2_">
					<use xlink:href="#SVGID_1_"  style="overflow:visible;"/>
				</clipPath>
			</g>
		</g>
		<g>
			<g>
				<defs>
					<ellipse id="SVGID_3_" cx="242.24" cy="-368.56" rx="26.65" ry="26.76"/>
				</defs>
				<clipPath id="SVGID_4_">
					<use xlink:href="#SVGID_3_"  style="overflow:visible;"/>
				</clipPath>
			</g>
		</g>
		<g>
			<g>
				<defs>
					<path id="SVGID_5_" d="M239.36-343.26c-15.58,0-28.25-12.73-28.25-28.37c0-15.64,12.67-28.37,28.25-28.37
						s28.25,12.73,28.25,28.37C267.61-355.99,254.93-343.26,239.36-343.26z M239.36-396.79c-13.81,0-25.05,11.29-25.05,25.16
						s11.24,25.16,25.05,25.16s25.05-11.29,25.05-25.16S253.17-396.79,239.36-396.79z"/>
				</defs>
				<clipPath id="SVGID_6_">
					<use xlink:href="#SVGID_5_"  style="overflow:visible;"/>
				</clipPath>
			</g>
		</g>
		<g>
			<g>
				<defs>
					<path id="SVGID_7_" d="M239.36-334.78c-4,0-7.87-0.82-11.5-2.45c-0.81-0.36-1.17-1.31-0.81-2.12s1.3-1.17,2.11-0.81
						c3.21,1.44,6.64,2.17,10.19,2.17s6.98-0.73,10.19-2.17c0.81-0.36,1.75,0,2.11,0.81s0,1.76-0.81,2.12
						C247.23-335.6,243.36-334.78,239.36-334.78"/>
				</defs>
				<clipPath id="SVGID_8_">
					<use xlink:href="#SVGID_7_"  style="overflow:visible;"/>
				</clipPath>
			</g>
		</g>
		<g>
			<g>
				<defs>
					<path id="SVGID_9_" d="M239.36-327.39c-3.43,0-6.74-0.82-9.85-2.45c-0.69-0.36-1-1.31-0.69-2.12s1.12-1.18,1.81-0.81
						c2.75,1.44,5.69,2.17,8.73,2.17s5.98-0.73,8.73-2.17c0.69-0.36,1.5,0,1.81,0.81s0,1.76-0.69,2.12
						C246.1-328.21,242.78-327.39,239.36-327.39"/>
				</defs>
				<clipPath id="SVGID_10_">
					<use xlink:href="#SVGID_9_"  style="overflow:visible;"/>
				</clipPath>
			</g>
		</g>
		<g>
			<g>
				<defs>
					<path id="SVGID_11_" d="M239.36-320c-2.38,0-4.75-0.3-7.06-0.9c-0.86-0.22-1.37-1.1-1.15-1.96s1.09-1.37,1.95-1.15
						c4.1,1.06,8.43,1.06,12.53,0c0.85-0.22,1.73,0.3,1.95,1.15c0.22,0.86-0.29,1.73-1.15,1.96C244.11-320.3,241.73-320,239.36-320"
						/>
				</defs>
				<clipPath id="SVGID_12_">
					<use xlink:href="#SVGID_11_"  style="overflow:visible;"/>
				</clipPath>
			</g>
		</g>
		<g>
			<g>
				<defs>
					<path id="SVGID_13_" d="M229.39-339.11c-0.84-5.79-3.5-10.65-7.95-14.49c-0.69-0.6-1.76-0.54-2.38,0.12
						c-0.62,0.67-0.56,1.69,0.13,2.29c3.85,3.33,6.13,7.49,6.86,12.53c0.13,0.89,0.98,1.5,1.9,1.38
						C228.88-337.41,229.52-338.22,229.39-339.11z"/>
				</defs>
				<clipPath id="SVGID_14_">
					<use xlink:href="#SVGID_13_"  style="overflow:visible;"/>
				</clipPath>
			</g>
		</g>
		<g>
			<g>
				<defs>
					<path id="SVGID_15_" d="M248.57-339.11c0.84-5.79,3.5-10.65,7.95-14.49c0.69-0.6,1.76-0.54,2.38,0.12
						c0.62,0.67,0.56,1.69-0.13,2.29c-3.85,3.33-6.13,7.49-6.86,12.53c-0.13,0.89-0.98,1.5-1.9,1.38
						C249.08-337.41,248.44-338.22,248.57-339.11z"/>
				</defs>
				<clipPath id="SVGID_16_">
					<use xlink:href="#SVGID_15_"  style="overflow:visible;"/>
				</clipPath>
			</g>
		</g>
	</g>
</g>
<g id="Yen" class="st2">
	<g class="st3">
		<g>
			<g>
				<defs>
					<path id="SVGID_17_" d="M241.72-354.63h0.68c4.01-0.01,18.46-0.15,18.49,0.75c0.3,0.07,0.59,0.24,0.81,0.49
						c0.59,0.66,0.54,1.68-0.12,2.27c-3.66,3.3-5.83,7.42-6.52,12.42c-0.09,0.68-0.59,1.19-1.22,1.34
						c-0.09,0.06-0.18,0.12-0.28,0.16c-3.63,1.63-7.5,2.45-11.5,2.45s-7.87-0.82-11.5-2.45c-0.04-0.02-0.08-0.06-0.13-0.13
						c-0.71-0.09-1.29-0.64-1.39-1.37c-0.69-5-2.86-9.11-6.52-12.42c-0.66-0.59-0.71-1.61-0.12-2.27c0.49-0.55,1.27-0.68,1.9-0.37
						C225.18-354.8,237.91-354.64,241.72-354.63z"/>
				</defs>
				<clipPath id="SVGID_18_">
					<use xlink:href="#SVGID_17_"  style="overflow:visible;"/>
				</clipPath>
			</g>
		</g>
		<g>
			<g>
				<defs>
					<ellipse id="SVGID_19_" cx="242.24" cy="-368.56" rx="26.65" ry="26.76"/>
				</defs>
				<clipPath id="SVGID_20_">
					<use xlink:href="#SVGID_19_"  style="overflow:visible;"/>
				</clipPath>
			</g>
		</g>
		<g>
			<g>
				<defs>
					<path id="SVGID_21_" d="M239.36-343.26c-15.58,0-28.25-12.73-28.25-28.37c0-15.64,12.67-28.37,28.25-28.37
						s28.25,12.73,28.25,28.37C267.61-355.99,254.93-343.26,239.36-343.26z M239.36-396.79c-13.81,0-25.05,11.29-25.05,25.16
						s11.24,25.16,25.05,25.16s25.05-11.29,25.05-25.16S253.17-396.79,239.36-396.79z"/>
				</defs>
				<clipPath id="SVGID_22_">
					<use xlink:href="#SVGID_21_"  style="overflow:visible;"/>
				</clipPath>
			</g>
		</g>
		<g>
			<g>
				<defs>
					<path id="SVGID_23_" d="M239.36-334.78c-4,0-7.87-0.82-11.5-2.45c-0.81-0.36-1.17-1.31-0.81-2.12s1.3-1.17,2.11-0.81
						c3.21,1.44,6.64,2.17,10.19,2.17s6.98-0.73,10.19-2.17c0.81-0.36,1.75,0,2.11,0.81s0,1.76-0.81,2.12
						C247.23-335.6,243.36-334.78,239.36-334.78"/>
				</defs>
				<clipPath id="SVGID_24_">
					<use xlink:href="#SVGID_23_"  style="overflow:visible;"/>
				</clipPath>
			</g>
		</g>
		<g>
			<g>
				<defs>
					<path id="SVGID_25_" d="M239.36-327.39c-3.43,0-6.74-0.82-9.85-2.45c-0.69-0.36-1-1.31-0.69-2.12s1.12-1.18,1.81-0.81
						c2.75,1.44,5.69,2.17,8.73,2.17s5.98-0.73,8.73-2.17c0.69-0.36,1.5,0,1.81,0.81s0,1.76-0.69,2.12
						C246.1-328.21,242.78-327.39,239.36-327.39"/>
				</defs>
				<clipPath id="SVGID_26_">
					<use xlink:href="#SVGID_25_"  style="overflow:visible;"/>
				</clipPath>
			</g>
		</g>
		<g>
			<g>
				<defs>
					<path id="SVGID_27_" d="M239.36-320c-2.38,0-4.75-0.3-7.06-0.9c-0.86-0.22-1.37-1.1-1.15-1.96s1.09-1.37,1.95-1.15
						c4.1,1.06,8.43,1.06,12.53,0c0.85-0.22,1.73,0.3,1.95,1.15c0.22,0.86-0.29,1.73-1.15,1.96C244.11-320.3,241.73-320,239.36-320"
						/>
				</defs>
				<clipPath id="SVGID_28_">
					<use xlink:href="#SVGID_27_"  style="overflow:visible;"/>
				</clipPath>
			</g>
		</g>
		<g>
			<g>
				<defs>
					<path id="SVGID_29_" d="M229.39-339.11c-0.84-5.79-3.5-10.65-7.95-14.49c-0.69-0.6-1.76-0.54-2.38,0.12
						c-0.62,0.67-0.56,1.69,0.13,2.29c3.85,3.33,6.13,7.49,6.86,12.53c0.13,0.89,0.98,1.5,1.9,1.38
						C228.88-337.41,229.52-338.22,229.39-339.11z"/>
				</defs>
				<clipPath id="SVGID_30_">
					<use xlink:href="#SVGID_29_"  style="overflow:visible;"/>
				</clipPath>
			</g>
		</g>
		<g>
			<g>
				<defs>
					<path id="SVGID_31_" d="M248.57-339.11c0.84-5.79,3.5-10.65,7.95-14.49c0.69-0.6,1.76-0.54,2.38,0.12
						c0.62,0.67,0.56,1.69-0.13,2.29c-3.85,3.33-6.13,7.49-6.86,12.53c-0.13,0.89-0.98,1.5-1.9,1.38
						C249.08-337.41,248.44-338.22,248.57-339.11z"/>
				</defs>
				<clipPath id="SVGID_32_">
					<use xlink:href="#SVGID_31_"  style="overflow:visible;"/>
				</clipPath>
			</g>
		</g>
	</g>
</g>
<g id="Euro" class="st2">
	<g class="st3">
		<g>
			<g>
				<defs>
					<path id="SVGID_33_" d="M241.72-354.63h0.68c4.01-0.01,18.46-0.15,18.49,0.75c0.3,0.07,0.59,0.24,0.81,0.49
						c0.59,0.66,0.54,1.68-0.12,2.27c-3.66,3.3-5.83,7.42-6.52,12.42c-0.09,0.68-0.59,1.19-1.22,1.34
						c-0.09,0.06-0.18,0.12-0.28,0.16c-3.63,1.63-7.5,2.45-11.5,2.45s-7.87-0.82-11.5-2.45c-0.04-0.02-0.08-0.06-0.13-0.13
						c-0.71-0.09-1.29-0.64-1.39-1.37c-0.69-5-2.86-9.11-6.52-12.42c-0.66-0.59-0.71-1.61-0.12-2.27c0.49-0.55,1.27-0.68,1.9-0.37
						C225.18-354.8,237.91-354.64,241.72-354.63z"/>
				</defs>
				<clipPath id="SVGID_34_">
					<use xlink:href="#SVGID_33_"  style="overflow:visible;"/>
				</clipPath>
			</g>
		</g>
		<g>
			<g>
				<defs>
					<ellipse id="SVGID_35_" cx="242.24" cy="-368.56" rx="26.65" ry="26.76"/>
				</defs>
				<clipPath id="SVGID_36_">
					<use xlink:href="#SVGID_35_"  style="overflow:visible;"/>
				</clipPath>
			</g>
		</g>
		<g>
			<g>
				<defs>
					<path id="SVGID_37_" d="M239.36-343.26c-15.58,0-28.25-12.73-28.25-28.37c0-15.64,12.67-28.37,28.25-28.37
						s28.25,12.73,28.25,28.37C267.61-355.99,254.93-343.26,239.36-343.26z M239.36-396.79c-13.81,0-25.05,11.29-25.05,25.16
						s11.24,25.16,25.05,25.16s25.05-11.29,25.05-25.16S253.17-396.79,239.36-396.79z"/>
				</defs>
				<clipPath id="SVGID_38_">
					<use xlink:href="#SVGID_37_"  style="overflow:visible;"/>
				</clipPath>
			</g>
		</g>
		<g>
			<g>
				<defs>
					<path id="SVGID_39_" d="M239.36-334.78c-4,0-7.87-0.82-11.5-2.45c-0.81-0.36-1.17-1.31-0.81-2.12s1.3-1.17,2.11-0.81
						c3.21,1.44,6.64,2.17,10.19,2.17s6.98-0.73,10.19-2.17c0.81-0.36,1.75,0,2.11,0.81s0,1.76-0.81,2.12
						C247.23-335.6,243.36-334.78,239.36-334.78"/>
				</defs>
				<clipPath id="SVGID_40_">
					<use xlink:href="#SVGID_39_"  style="overflow:visible;"/>
				</clipPath>
			</g>
		</g>
		<g>
			<g>
				<defs>
					<path id="SVGID_41_" d="M239.36-327.39c-3.43,0-6.74-0.82-9.85-2.45c-0.69-0.36-1-1.31-0.69-2.12s1.12-1.18,1.81-0.81
						c2.75,1.44,5.69,2.17,8.73,2.17s5.98-0.73,8.73-2.17c0.69-0.36,1.5,0,1.81,0.81s0,1.76-0.69,2.12
						C246.1-328.21,242.78-327.39,239.36-327.39"/>
				</defs>
				<clipPath id="SVGID_42_">
					<use xlink:href="#SVGID_41_"  style="overflow:visible;"/>
				</clipPath>
			</g>
		</g>
		<g>
			<g>
				<defs>
					<path id="SVGID_43_" d="M239.36-320c-2.38,0-4.75-0.3-7.06-0.9c-0.86-0.22-1.37-1.1-1.15-1.96s1.09-1.37,1.95-1.15
						c4.1,1.06,8.43,1.06,12.53,0c0.85-0.22,1.73,0.3,1.95,1.15c0.22,0.86-0.29,1.73-1.15,1.96C244.11-320.3,241.73-320,239.36-320"
						/>
				</defs>
				<clipPath id="SVGID_44_">
					<use xlink:href="#SVGID_43_"  style="overflow:visible;"/>
				</clipPath>
			</g>
		</g>
		<g>
			<g>
				<defs>
					<path id="SVGID_45_" d="M229.39-339.11c-0.84-5.79-3.5-10.65-7.95-14.49c-0.69-0.6-1.76-0.54-2.38,0.12
						c-0.62,0.67-0.56,1.69,0.13,2.29c3.85,3.33,6.13,7.49,6.86,12.53c0.13,0.89,0.98,1.5,1.9,1.38
						C228.88-337.41,229.52-338.22,229.39-339.11z"/>
				</defs>
				<clipPath id="SVGID_46_">
					<use xlink:href="#SVGID_45_"  style="overflow:visible;"/>
				</clipPath>
			</g>
		</g>
		<g>
			<g>
				<defs>
					<path id="SVGID_47_" d="M248.57-339.11c0.84-5.79,3.5-10.65,7.95-14.49c0.69-0.6,1.76-0.54,2.38,0.12
						c0.62,0.67,0.56,1.69-0.13,2.29c-3.85,3.33-6.13,7.49-6.86,12.53c-0.13,0.89-0.98,1.5-1.9,1.38
						C249.08-337.41,248.44-338.22,248.57-339.11z"/>
				</defs>
				<clipPath id="SVGID_48_">
					<use xlink:href="#SVGID_47_"  style="overflow:visible;"/>
				</clipPath>
			</g>
		</g>
	</g>
</g>
<g id="Rupee" class="st2">
	<g class="st3">
		<g>
			<g>
				<defs>
					<path id="SVGID_49_" d="M241.72-354.63h0.68c4.01-0.01,18.46-0.15,18.49,0.75c0.3,0.07,0.59,0.24,0.81,0.49
						c0.59,0.66,0.54,1.68-0.12,2.27c-3.66,3.3-5.83,7.42-6.52,12.42c-0.09,0.68-0.59,1.19-1.22,1.34
						c-0.09,0.06-0.18,0.12-0.28,0.16c-3.63,1.63-7.5,2.45-11.5,2.45s-7.87-0.82-11.5-2.45c-0.04-0.02-0.08-0.06-0.13-0.13
						c-0.71-0.09-1.29-0.64-1.39-1.37c-0.69-5-2.86-9.11-6.52-12.42c-0.66-0.59-0.71-1.61-0.12-2.27c0.49-0.55,1.27-0.68,1.9-0.37
						C225.18-354.8,237.91-354.64,241.72-354.63z"/>
				</defs>
				<clipPath id="SVGID_50_">
					<use xlink:href="#SVGID_49_"  style="overflow:visible;"/>
				</clipPath>
			</g>
		</g>
		<g>
			<g>
				<defs>
					<ellipse id="SVGID_51_" cx="242.24" cy="-368.56" rx="26.65" ry="26.76"/>
				</defs>
				<clipPath id="SVGID_52_">
					<use xlink:href="#SVGID_51_"  style="overflow:visible;"/>
				</clipPath>
			</g>
		</g>
		<g>
			<g>
				<defs>
					<path id="SVGID_53_" d="M239.36-343.26c-15.58,0-28.25-12.73-28.25-28.37c0-15.64,12.67-28.37,28.25-28.37
						s28.25,12.73,28.25,28.37C267.61-355.99,254.93-343.26,239.36-343.26z M239.36-396.79c-13.81,0-25.05,11.29-25.05,25.16
						s11.24,25.16,25.05,25.16s25.05-11.29,25.05-25.16S253.17-396.79,239.36-396.79z"/>
				</defs>
				<clipPath id="SVGID_54_">
					<use xlink:href="#SVGID_53_"  style="overflow:visible;"/>
				</clipPath>
			</g>
		</g>
		<g>
			<g>
				<defs>
					<path id="SVGID_55_" d="M239.36-334.78c-4,0-7.87-0.82-11.5-2.45c-0.81-0.36-1.17-1.31-0.81-2.12s1.3-1.17,2.11-0.81
						c3.21,1.44,6.64,2.17,10.19,2.17s6.98-0.73,10.19-2.17c0.81-0.36,1.75,0,2.11,0.81s0,1.76-0.81,2.12
						C247.23-335.6,243.36-334.78,239.36-334.78"/>
				</defs>
				<clipPath id="SVGID_56_">
					<use xlink:href="#SVGID_55_"  style="overflow:visible;"/>
				</clipPath>
			</g>
		</g>
		<g>
			<g>
				<defs>
					<path id="SVGID_57_" d="M239.36-327.39c-3.43,0-6.74-0.82-9.85-2.45c-0.69-0.36-1-1.31-0.69-2.12s1.12-1.18,1.81-0.81
						c2.75,1.44,5.69,2.17,8.73,2.17s5.98-0.73,8.73-2.17c0.69-0.36,1.5,0,1.81,0.81s0,1.76-0.69,2.12
						C246.1-328.21,242.78-327.39,239.36-327.39"/>
				</defs>
				<clipPath id="SVGID_58_">
					<use xlink:href="#SVGID_57_"  style="overflow:visible;"/>
				</clipPath>
			</g>
		</g>
		<g>
			<g>
				<defs>
					<path id="SVGID_59_" d="M239.36-320c-2.38,0-4.75-0.3-7.06-0.9c-0.86-0.22-1.37-1.1-1.15-1.96s1.09-1.37,1.95-1.15
						c4.1,1.06,8.43,1.06,12.53,0c0.85-0.22,1.73,0.3,1.95,1.15c0.22,0.86-0.29,1.73-1.15,1.96C244.11-320.3,241.73-320,239.36-320"
						/>
				</defs>
				<clipPath id="SVGID_60_">
					<use xlink:href="#SVGID_59_"  style="overflow:visible;"/>
				</clipPath>
			</g>
		</g>
		<g>
			<g>
				<defs>
					<path id="SVGID_61_" d="M229.39-339.11c-0.84-5.79-3.5-10.65-7.95-14.49c-0.69-0.6-1.76-0.54-2.38,0.12
						c-0.62,0.67-0.56,1.69,0.13,2.29c3.85,3.33,6.13,7.49,6.86,12.53c0.13,0.89,0.98,1.5,1.9,1.38
						C228.88-337.41,229.52-338.22,229.39-339.11z"/>
				</defs>
				<clipPath id="SVGID_62_">
					<use xlink:href="#SVGID_61_"  style="overflow:visible;"/>
				</clipPath>
			</g>
		</g>
		<g>
			<g>
				<defs>
					<path id="SVGID_63_" d="M248.57-339.11c0.84-5.79,3.5-10.65,7.95-14.49c0.69-0.6,1.76-0.54,2.38,0.12
						c0.62,0.67,0.56,1.69-0.13,2.29c-3.85,3.33-6.13,7.49-6.86,12.53c-0.13,0.89-0.98,1.5-1.9,1.38
						C249.08-337.41,248.44-338.22,248.57-339.11z"/>
				</defs>
				<clipPath id="SVGID_64_">
					<use xlink:href="#SVGID_63_"  style="overflow:visible;"/>
				</clipPath>
			</g>
		</g>
	</g>
</g>
</svg>
