<?xml version="1.0" encoding="utf-8"?>
<!-- Generator: Adobe Illustrator 24.1.0, SVG Export Plug-In . SVG Version: 6.00 Build 0)  -->
<svg version="1.1" id="Layer_1" xmlns="http://www.w3.org/2000/svg" xmlns:xlink="http://www.w3.org/1999/xlink" x="0px" y="0px"
	 viewBox="0 0 80 80" style="enable-background:new 0 0 80 80;" xml:space="preserve">
<style type="text/css">
	.st0{fill:#B2E5F6;}
	.st1{fill:#232F3E;}
	.st2{fill:#FFFFFF;}
	.st3{fill-rule:evenodd;clip-rule:evenodd;fill:#FFFFFF;}
</style>
<g>
	<g>
		<g>
			<path class="st0" d="M60.17,29.07h9.92v-9.79c0-0.92-0.74-1.67-1.66-1.67H6.05c-0.92,0-1.66,0.75-1.66,1.67v33.97
				c0,0.92,0.74,1.67,1.66,1.67h48.37v-20.1C54.42,31.64,56.99,29.07,60.17,29.07z"/>
		</g>
		<g>
			<path class="st1" d="M5.78,57.32c-1.82,0-3.29-1.5-3.29-3.34V53.2H52c0.69,0,1.25-0.56,1.25-1.25v0c0-0.69-0.56-1.25-1.25-1.25
				H2.49V15.89h63.21v10.76c0,0.69,0.56,1.24,1.24,1.24l0,0c0.69,0,1.24-0.56,1.24-1.24v-14.1c0-3.17-2.57-5.75-5.72-5.75H5.78
				C2.59,6.8,0,9.42,0,12.65v41.33c0,3.22,2.59,5.84,5.78,5.84h18.45v7.22h-3.98c-0.69,0-1.24,0.56-1.24,1.25s0.56,1.25,1.24,1.25
				h27.68c0.69,0,1.24-0.56,1.24-1.25s-0.56-1.25-1.24-1.25h-3.98v-7.22H52c0.69,0,1.25-0.56,1.25-1.25v0
				c0-0.69-0.56-1.25-1.25-1.25H5.78z M2.49,12.65c0-1.84,1.48-3.34,3.29-3.34h56.68c1.78,0,3.23,1.46,3.23,3.25v0.84H2.49V12.65z
				 M41.47,67.04H26.71v-7.22h14.75V67.04z"/>
		</g>
	</g>
	<g>
		<path class="st0" d="M80,35.6c0-1.5-1.22-2.72-2.72-2.72h-1.09c0,0,0,0,0,0v0c0,0.9-0.73,1.63-1.63,1.63H64.2
			c-0.9,0-1.63-0.73-1.63-1.63v0c0,0,0,0,0,0h-1.09c-1.5,0-2.72,1.22-2.72,2.72v34.87c0,1.5,1.22,2.72,2.72,2.72h15.8
			c1.5,0,2.72-1.22,2.72-2.72V35.6z"/>
		<g>
			<path class="st1" d="M75.14,30.23H59.81c-2.33,0-4.23,1.89-4.23,4.23v33.82c0,2.33,1.89,4.23,4.23,4.23h15.32
				c2.33,0,4.23-1.89,4.23-4.23V34.46C79.37,32.13,77.47,30.23,75.14,30.23z M77.78,68.28c0,1.46-1.19,2.64-2.64,2.64H59.81
				c-1.46,0-2.64-1.19-2.64-2.64V34.46c0-1.46,1.19-2.64,2.64-2.64h1.06c0,0,0,0,0,0c0,0.88,0.71,1.59,1.59,1.59H72.5
				c0.88,0,1.59-0.71,1.59-1.59c0,0,0,0,0,0h1.06c1.46,0,2.64,1.19,2.64,2.64V68.28z"/>
		</g>
	</g>
	<g>
		<path class="st1" d="M60.72,20.33H7.46c-0.61,0-1.11,0.5-1.11,1.11v11.1c0,0.61,0.5,1.11,1.11,1.11h47.08
			c0.54-2.61,2.85-4.58,5.63-4.58h1.67v-7.62C61.83,20.83,61.34,20.33,60.72,20.33z"/>
	</g>
	<path class="st2" d="M25.69,44.04h-5.77c-0.55,0-1-0.45-1-1v-6.17c0-0.55,0.45-1,1-1h5.77c0.55,0,1,0.45,1,1v6.17
		C26.69,43.59,26.24,44.04,25.69,44.04z"/>
	<path class="st2" d="M38.25,44.04h-5.77c-0.55,0-1-0.45-1-1v-6.17c0-0.55,0.45-1,1-1h5.77c0.55,0,1,0.45,1,1v6.17
		C39.25,43.59,38.81,44.04,38.25,44.04z"/>
	<path class="st2" d="M50.82,44.04h-5.77c-0.55,0-1-0.45-1-1v-6.17c0-0.55,0.45-1,1-1h5.77c0.55,0,1,0.45,1,1v6.17
		C51.82,43.59,51.37,44.04,50.82,44.04z"/>
	<path class="st2" d="M25.69,48.48h-5.77c-0.55,0-1-0.45-1-1v-0.22c0-0.55,0.45-1,1-1h5.77c0.55,0,1,0.45,1,1v0.22
		C26.69,48.03,26.24,48.48,25.69,48.48z"/>
	<path class="st2" d="M13.12,44.04H7.35c-0.55,0-1-0.45-1-1v-6.17c0-0.55,0.45-1,1-1h5.77c0.55,0,1,0.45,1,1v6.17
		C14.12,43.59,13.67,44.04,13.12,44.04z"/>
	<path class="st2" d="M13.12,48.48H7.35c-0.55,0-1-0.45-1-1v-0.22c0-0.55,0.45-1,1-1h5.77c0.55,0,1,0.45,1,1v0.22
		C14.12,48.03,13.67,48.48,13.12,48.48z"/>
	<path class="st2" d="M38.25,48.48h-5.77c-0.55,0-1-0.45-1-1v-0.22c0-0.55,0.45-1,1-1h5.77c0.55,0,1,0.45,1,1v0.22
		C39.25,48.03,38.81,48.48,38.25,48.48z"/>
	<path class="st2" d="M50.82,48.48h-5.77c-0.55,0-1-0.45-1-1v-0.22c0-0.55,0.45-1,1-1h5.77c0.55,0,1,0.45,1,1v0.22
		C51.82,48.03,51.37,48.48,50.82,48.48z"/>
	<g>
		<path class="st3" d="M45.3,26.68c-3.04,2.24-7.44,3.43-11.23,3.43c-5.31,0-10.1-1.96-13.72-5.23c-0.28-0.26-0.03-0.61,0.31-0.41
			c3.91,2.27,8.74,3.64,13.73,3.64c3.37,0,7.07-0.7,10.47-2.14C45.37,25.75,45.8,26.31,45.3,26.68z"/>
		<path class="st3" d="M46.56,25.24c-0.39-0.5-2.57-0.24-3.55-0.12c-0.3,0.04-0.34-0.22-0.08-0.41c1.74-1.22,4.59-0.87,4.92-0.46
			c0.33,0.41-0.09,3.27-1.72,4.63c-0.25,0.21-0.49,0.1-0.38-0.18C46.13,27.78,46.95,25.73,46.56,25.24z"/>
	</g>
	<path class="st2" d="M65.98,52.57h-3.71c-0.55,0-1-0.45-1-1v-3.71c0-0.55,0.45-1,1-1h3.71c0.55,0,1,0.45,1,1v3.71
		C66.98,52.12,66.53,52.57,65.98,52.57z"/>
	<path class="st2" d="M65.98,59.92h-3.71c-0.55,0-1-0.45-1-1V55.2c0-0.55,0.45-1,1-1h3.71c0.55,0,1,0.45,1,1v3.71
		C66.98,59.47,66.53,59.92,65.98,59.92z"/>
	<path class="st2" d="M65.98,67.26h-3.71c-0.55,0-1-0.45-1-1v-3.71c0-0.55,0.45-1,1-1h3.71c0.55,0,1,0.45,1,1v3.71
		C66.98,66.81,66.53,67.26,65.98,67.26z"/>
	<path class="st2" d="M72.69,52.57h-3.71c-0.55,0-1-0.45-1-1v-3.71c0-0.55,0.45-1,1-1h3.71c0.55,0,1,0.45,1,1v3.71
		C73.69,52.12,73.24,52.57,72.69,52.57z"/>
	<path class="st2" d="M72.69,59.92h-3.71c-0.55,0-1-0.45-1-1V55.2c0-0.55,0.45-1,1-1h3.71c0.55,0,1,0.45,1,1v3.71
		C73.69,59.47,73.24,59.92,72.69,59.92z"/>
	<path class="st2" d="M72.69,67.26h-3.71c-0.55,0-1-0.45-1-1v-3.71c0-0.55,0.45-1,1-1h3.71c0.55,0,1,0.45,1,1v3.71
		C73.69,66.81,73.24,67.26,72.69,67.26z"/>
	<path class="st1" d="M72.69,45.22h-10.4c-0.55,0-1-0.45-1-1v-4.48c0-0.55,0.45-1,1-1h10.4c0.55,0,1,0.45,1,1v4.48
		C73.69,44.77,73.24,45.22,72.69,45.22z"/>
</g>
</svg>
